<svg xmlns="http://www.w3.org/2000/svg" width="256" height="256" viewBox="0 0 100 100"><rect width="100" height="100" rx="20" fill="#e7c56e"></rect><path d="M16.98 59.73L16.98 59.73L16.98 34.48Q16.98 32.83 16.28 31.63Q15.58 30.43 14.53 30.43L14.53 30.43L14.53 29.33Q14.88 29.27 19.98 26.27L19.98 26.27Q20.33 26.38 20.83 26.55Q21.33 26.73 22.15 27.52Q22.98 28.33 22.98 29.38L22.98 29.38Q23.28 29.23 24.68 28.43L24.68 28.43Q28.38 26.33 29.25 26.33Q30.13 26.33 31.20 27.23Q32.28 28.13 32.83 29.38L32.83 29.38Q32.92 29.33 34.88 28.33L34.88 28.33Q38.78 26.33 39.58 26.33L39.58 26.33Q41.18 26.33 42.58 28.43Q43.98 30.52 43.98 32.27L43.98 32.27L43.98 57.43Q43.98 60.18 46.43 60.68L46.43 60.68L46.43 61.78L40.98 64.83Q39.88 64.38 38.93 63.35Q37.98 62.33 37.98 61.43L37.98 61.43L37.98 36.92Q37.98 33.92 37 32.75Q36.03 31.58 33.48 31.48L33.48 31.48L33.48 57.43Q33.48 60.18 35.93 60.68L35.93 60.68L35.93 61.78L30.48 64.83Q29.38 64.38 28.43 63.35Q27.48 62.33 27.48 61.43L27.48 61.43L27.48 36.92Q27.48 33.78 26.55 32.63Q25.63 31.48 22.98 31.48L22.98 31.48L22.98 57.13Q22.98 58.98 23.38 59.78Q23.78 60.58 25.03 60.58L25.03 60.58L25.03 62.13L14.78 66.42L13.98 64.83Q15.08 64.83 16.08 63.53L16.08 63.53Q16.98 62.28 16.98 59.73ZM64.47 42.92L64.47 42.92L64.47 57.08Q64.47 58.93 65.08 59.65Q65.68 60.38 66.93 60.68L66.93 60.68L66.93 61.78L61.48 64.83Q60.38 64.38 59.43 63.35Q58.48 62.33 58.48 61.48L58.48 61.48L52.23 64.83Q52.08 64.73 51.78 64.55Q51.48 64.38 50.75 63.80Q50.02 63.23 49.48 62.58L49.48 62.58Q47.98 60.93 47.98 58.83L47.98 58.83L47.98 50.63Q47.98 49.83 50.58 48.58Q53.18 47.33 55.78 46.53L55.78 46.53L58.43 45.67Q58.43 42.83 56.93 41.70Q55.43 40.58 51.13 40.58L51.13 40.58L51.13 39.08Q58.88 36.33 59.83 36.33L59.83 36.33Q61.48 36.33 62.98 38.48Q64.47 40.63 64.47 42.92ZM53.98 57.03Q53.98 58.33 54.75 59.15Q55.53 59.98 56.48 59.98Q57.43 59.98 58.48 59.23L58.48 59.23L58.48 47.92Q57.23 48.38 56.60 48.67Q55.98 48.98 55.28 49.63L55.28 49.63Q53.98 50.83 53.98 53.78L53.98 53.78L53.98 57.03ZM77.47 40.98L77.47 40.98Q76.52 40.98 75.52 41.78L75.52 41.78L75.52 61.63Q76.82 61.63 78.42 60.78Q80.02 59.93 80.02 58.98L80.02 58.98L80.02 44.67Q80.02 40.98 77.47 40.98ZM69.47 70.33L69.47 70.33L69.47 44.03Q69.47 42.88 68.85 41.78Q68.22 40.67 67.07 40.53L67.07 40.53L67.07 39.42Q67.42 39.38 72.52 36.38L72.52 36.38Q73.67 36.88 74.60 37.85Q75.52 38.83 75.52 39.67L75.52 39.67Q80.88 36.38 81.77 36.38L81.77 36.38Q82.13 36.38 83.10 37.15Q84.07 37.92 85.05 39.40Q86.02 40.88 86.02 42.42L86.02 42.42L86.02 60.23Q86.02 60.58 81.60 62.30Q77.17 64.03 75.47 64.48L75.47 64.48L75.47 66.33Q75.47 69.38 77.52 69.78L77.52 69.78L77.52 70.88L72.47 73.73Q71.38 73.28 70.42 72.25Q69.47 71.23 69.47 70.33Z" fill="#fff"></path></svg>